<svg xmlns="http://www.w3.org/2000/svg" width="1500" height="1080"><path d="M9,1232L-92,1239L277,1237Z" fill="#831012" stroke="#831012" stroke-width="1.51"/><path d="M-111,-155L101,-127L426,-140Z" fill="#8d1415" stroke="#8d1415" stroke-width="1.51"/><path d="M-111,-155L426,-140L609,-160Z" fill="#750a0c" stroke="#750a0c" stroke-width="1.51"/><path d="M767,1207L556,1231L862,1206Z" fill="#8c1415" stroke="#8c1415" stroke-width="1.51"/><path d="M609,-160L827,-130L930,-132Z" fill="#891314" stroke="#891314" stroke-width="1.51"/><path d="M609,-160L930,-132L1077,-130Z" fill="#7e0f10" stroke="#7e0f10" stroke-width="1.51"/><path d="M862,1206L556,1231L1231,1225Z" fill="#7d0e10" stroke="#7d0e10" stroke-width="1.51"/><path d="M609,-160L1077,-130L1293,-120Z" fill="#6f080a" stroke="#6f080a" stroke-width="1.51"/><path d="M1231,1225L556,1231L1427,1230Z" fill="#660504" stroke="#660504" stroke-width="1.51"/><path d="M1293,-120L1433,-95L1515,-90Z" fill="#901516" stroke="#901516" stroke-width="1.51"/><path d="M1293,-120L1515,-90L1639,-78Z" fill="#881213" stroke="#881213" stroke-width="1.51"/><path d="M1538,1065L1616,1076L1640,956Z" fill="#911616" stroke="#911616" stroke-width="1.51"/><path d="M1506,894L1605,912L1645,776Z" fill="#7b0d0f" stroke="#7b0d0f" stroke-width="1.51"/><path d="M1605,912L1640,956L1645,776Z" fill="#780c0e" stroke="#780c0e" stroke-width="1.51"/><path d="M1508,1217L1427,1230L1647,1220Z" fill="#7a0c0f" stroke="#7a0c0f" stroke-width="1.51"/><path d="M1616,1076L1508,1217L1647,1220Z" fill="#7a0c0f" stroke="#7a0c0f" stroke-width="1.51"/><path d="M1640,956L1616,1076L1647,1220Z" fill="#831012" stroke="#831012" stroke-width="1.51"/><path d="M1561,300L1592,349L1653,180Z" fill="#6f080a" stroke="#6f080a" stroke-width="1.51"/><path d="M1592,349L1605,408L1653,180Z" fill="#6b0607" stroke="#6b0607" stroke-width="1.51"/><path d="M1605,408L1490,579L1659,570Z" fill="#921616" stroke="#921616" stroke-width="1.51"/><path d="M1490,579L1512,650L1659,570Z" fill="#8f1516" stroke="#8f1516" stroke-width="1.51"/><path d="M1653,180L1605,408L1659,570Z" fill="#740a0c" stroke="#740a0c" stroke-width="1.51"/><path d="M1639,-78L1547,24L1660,-53Z" fill="#800f11" stroke="#800f11" stroke-width="1.51"/><path d="M1547,24L1634,98L1660,-53Z" fill="#8b1314" stroke="#8b1314" stroke-width="1.51"/><path d="M1634,98L1653,180L1660,-53Z" fill="#8b1315" stroke="#8b1315" stroke-width="1.51"/><path d="M1653,180L1659,570L1660,-53Z" fill="#6f0809" stroke="#6f0809" stroke-width="1.51"/><path d="M1519,736L1645,776L1660,664Z" fill="#73090c" stroke="#73090c" stroke-width="1.51"/><path d="M1512,650L1519,736L1660,664Z" fill="#7f0f11" stroke="#7f0f11" stroke-width="1.51"/><path d="M1640,956L1647,1220L1660,664Z" fill="#811011" stroke="#811011" stroke-width="1.51"/><path d="M1645,776L1640,956L1660,664Z" fill="#680506" stroke="#680506" stroke-width="1.51"/><path d="M1659,570L1512,650L1660,664Z" fill="#831012" stroke="#831012" stroke-width="1.51"/><path d="M1538,1065L1508,1217L1616,1076Z" fill="#881213" stroke="#881213" stroke-width="1.51"/><path d="M1517,968L1538,1065L1640,956Z" fill="#951717" stroke="#951717" stroke-width="1.51"/><path d="M1519,736L1506,894L1645,776Z" fill="#750a0c" stroke="#750a0c" stroke-width="1.51"/><path d="M1634,98L1482,199L1653,180Z" fill="#841112" stroke="#841112" stroke-width="1.51"/><path d="M1482,199L1561,300L1653,180Z" fill="#7c0d0f" stroke="#7c0d0f" stroke-width="1.51"/><path d="M1510,392L1490,579L1605,408Z" fill="#8e1415" stroke="#8e1415" stroke-width="1.51"/><path d="M1515,-90L1547,24L1639,-78Z" fill="#841112" stroke="#841112" stroke-width="1.51"/><path d="M1493,67L1482,199L1634,98Z" fill="#911617" stroke="#911617" stroke-width="1.51"/><path d="M1605,912L1517,968L1640,956Z" fill="#891314" stroke="#891314" stroke-width="1.51"/><path d="M1547,24L1493,67L1634,98Z" fill="#991919" stroke="#991919" stroke-width="1.51"/><path d="M1592,349L1510,392L1605,408Z" fill="#7c0e10" stroke="#7c0e10" stroke-width="1.51"/><path d="M1506,894L1517,968L1605,912Z" fill="#8b1414" stroke="#8b1414" stroke-width="1.51"/><path d="M1561,300L1510,392L1592,349Z" fill="#790c0e" stroke="#790c0e" stroke-width="1.51"/><path d="M1432,118L1482,199L1493,67Z" fill="#991819" stroke="#991819" stroke-width="1.51"/><path d="M1415,560L1490,579L1510,392Z" fill="#9f1b1b" stroke="#9f1b1b" stroke-width="1.51"/><path d="M1432,801L1506,894L1519,736Z" fill="#7f0f10" stroke="#7f0f10" stroke-width="1.51"/><path d="M1381,1130L1508,1217L1538,1065Z" fill="#8f1515" stroke="#8f1515" stroke-width="1.51"/><path d="M1429,289L1510,392L1561,300Z" fill="#7c0d0f" stroke="#7c0d0f" stroke-width="1.51"/><path d="M1482,199L1429,289L1561,300Z" fill="#7f0f10" stroke="#7f0f10" stroke-width="1.51"/><path d="M1077,-130L1152,-111L1293,-120Z" fill="#780c0e" stroke="#780c0e" stroke-width="1.51"/><path d="M1432,801L1446,880L1506,894Z" fill="#8a1314" stroke="#8a1314" stroke-width="1.51"/><path d="M1386,404L1415,560L1510,392Z" fill="#9a1919" stroke="#9a1919" stroke-width="1.51"/><path d="M1517,968L1409,985L1538,1065Z" fill="#a01c1c" stroke="#a01c1c" stroke-width="1.51"/><path d="M1515,-90L1405,-3L1547,24Z" fill="#931717" stroke="#931717" stroke-width="1.51"/><path d="M1405,-3L1493,67L1547,24Z" fill="#9d1a1b" stroke="#9d1a1b" stroke-width="1.51"/><path d="M1433,-95L1405,-3L1515,-90Z" fill="#911617" stroke="#911617" stroke-width="1.51"/><path d="M1409,985L1381,1130L1538,1065Z" fill="#a11b1c" stroke="#a11b1c" stroke-width="1.51"/><path d="M1434,218L1429,289L1482,199Z" fill="#8a1314" stroke="#8a1314" stroke-width="1.51"/><path d="M1381,1130L1427,1230L1508,1217Z" fill="#8a1314" stroke="#8a1314" stroke-width="1.51"/><path d="M1506,894L1446,880L1517,968Z" fill="#901516" stroke="#901516" stroke-width="1.51"/><path d="M1446,880L1409,985L1517,968Z" fill="#991819" stroke="#991819" stroke-width="1.51"/><path d="M1512,650L1418,684L1519,736Z" fill="#891314" stroke="#891314" stroke-width="1.51"/><path d="M1418,684L1432,801L1519,736Z" fill="#841112" stroke="#841112" stroke-width="1.51"/><path d="M1429,289L1386,404L1510,392Z" fill="#891314" stroke="#891314" stroke-width="1.51"/><path d="M1490,579L1418,684L1512,650Z" fill="#931717" stroke="#931717" stroke-width="1.51"/><path d="M975,1181L862,1206L1231,1225Z" fill="#6e0709" stroke="#6e0709" stroke-width="1.51"/><path d="M1415,560L1418,684L1490,579Z" fill="#9d1a1b" stroke="#9d1a1b" stroke-width="1.51"/><path d="M1405,-3L1432,118L1493,67Z" fill="#a81e1e" stroke="#a81e1e" stroke-width="1.51"/><path d="M1432,118L1434,218L1482,199Z" fill="#931717" stroke="#931717" stroke-width="1.51"/><path d="M1415,560L1322,613L1418,684Z" fill="#a21c1c" stroke="#a21c1c" stroke-width="1.51"/><path d="M1381,1130L1339,1173L1427,1230Z" fill="#951718" stroke="#951718" stroke-width="1.51"/><path d="M1317,331L1386,404L1429,289Z" fill="#8f1516" stroke="#8f1516" stroke-width="1.51"/><path d="M1405,-3L1318,77L1432,118Z" fill="#b02121" stroke="#b02121" stroke-width="1.51"/><path d="M1418,684L1337,744L1432,801Z" fill="#8b1415" stroke="#8b1415" stroke-width="1.51"/><path d="M1432,118L1273,191L1434,218Z" fill="#9d1a1a" stroke="#9d1a1a" stroke-width="1.51"/><path d="M1432,801L1326,881L1446,880Z" fill="#921616" stroke="#921616" stroke-width="1.51"/><path d="M1326,881L1409,985L1446,880Z" fill="#9d1a1b" stroke="#9d1a1b" stroke-width="1.51"/><path d="M1298,982L1265,1055L1381,1130Z" fill="#a31d1c" stroke="#a31d1c" stroke-width="1.51"/><path d="M1320,389L1260,572L1386,404Z" fill="#9c1a1a" stroke="#9c1a1a" stroke-width="1.51"/><path d="M1298,982L1381,1130L1409,985Z" fill="#ad2020" stroke="#ad2020" stroke-width="1.51"/><path d="M1386,404L1260,572L1415,560Z" fill="#aa1f1f" stroke="#aa1f1f" stroke-width="1.51"/><path d="M1339,1173L1231,1225L1427,1230Z" fill="#8b1314" stroke="#8b1314" stroke-width="1.51"/><path d="M1318,77L1273,191L1432,118Z" fill="#a21c1c" stroke="#a21c1c" stroke-width="1.51"/><path d="M1319,-34L1405,-3L1433,-95Z" fill="#9d1a1b" stroke="#9d1a1b" stroke-width="1.51"/><path d="M1317,331L1429,289L1434,218Z" fill="#8a1214" stroke="#8a1214" stroke-width="1.51"/><path d="M1273,191L1317,331L1434,218Z" fill="#8e1415" stroke="#8e1415" stroke-width="1.51"/><path d="M1337,744L1326,881L1432,801Z" fill="#8d1415" stroke="#8d1415" stroke-width="1.51"/><path d="M1293,-120L1319,-34L1433,-95Z" fill="#951718" stroke="#951718" stroke-width="1.51"/><path d="M1326,881L1298,982L1409,985Z" fill="#a21c1c" stroke="#a21c1c" stroke-width="1.51"/><path d="M1260,572L1322,613L1415,560Z" fill="#a51d1d" stroke="#a51d1d" stroke-width="1.51"/><path d="M1322,613L1337,744L1418,684Z" fill="#971819" stroke="#971819" stroke-width="1.51"/><path d="M1219,524L1260,572L1320,389Z" fill="#9b1a1a" stroke="#9b1a1a" stroke-width="1.51"/><path d="M1317,331L1320,389L1386,404Z" fill="#911616" stroke="#911616" stroke-width="1.51"/><path d="M1319,-34L1318,77L1405,-3Z" fill="#a51d1e" stroke="#a51d1e" stroke-width="1.51"/><path d="M1213,463L1219,524L1320,389Z" fill="#931617" stroke="#931617" stroke-width="1.51"/><path d="M1265,1055L1339,1173L1381,1130Z" fill="#9a1919" stroke="#9a1919" stroke-width="1.51"/><path d="M1093,1170L975,1181L1231,1225Z" fill="#6f080a" stroke="#6f080a" stroke-width="1.51"/><path d="M1203,-40L1318,77L1319,-34Z" fill="#9a1919" stroke="#9a1919" stroke-width="1.51"/><path d="M1181,735L1230,912L1326,881Z" fill="#831012" stroke="#831012" stroke-width="1.51"/><path d="M1230,912L1298,982L1326,881Z" fill="#961818" stroke="#961818" stroke-width="1.51"/><path d="M1322,613L1207,660L1337,744Z" fill="#8f1516" stroke="#8f1516" stroke-width="1.51"/><path d="M1207,660L1181,735L1337,744Z" fill="#821012" stroke="#821012" stroke-width="1.51"/><path d="M1181,735L1326,881L1337,744Z" fill="#7e0e10" stroke="#7e0e10" stroke-width="1.51"/><path d="M1265,1055L1231,1225L1339,1173Z" fill="#8d1415" stroke="#8d1415" stroke-width="1.51"/><path d="M1273,191L1192,343L1317,331Z" fill="#7c0d0f" stroke="#7c0d0f" stroke-width="1.51"/><path d="M1176,81L1273,191L1318,77Z" fill="#981919" stroke="#981919" stroke-width="1.51"/><path d="M1203,-40L1176,81L1318,77Z" fill="#9a1a1a" stroke="#9a1a1a" stroke-width="1.51"/><path d="M1293,-120L1203,-40L1319,-34Z" fill="#8e1515" stroke="#8e1515" stroke-width="1.51"/><path d="M1149,1120L1231,1225L1265,1055Z" fill="#881214" stroke="#881214" stroke-width="1.51"/><path d="M1317,331L1192,343L1320,389Z" fill="#851112" stroke="#851112" stroke-width="1.51"/><path d="M1260,572L1207,660L1322,613Z" fill="#961718" stroke="#961718" stroke-width="1.51"/><path d="M1192,343L1213,463L1320,389Z" fill="#881213" stroke="#881213" stroke-width="1.51"/><path d="M1176,81L1181,177L1273,191Z" fill="#8d1415" stroke="#8d1415" stroke-width="1.51"/><path d="M1181,177L1192,343L1273,191Z" fill="#7f0f10" stroke="#7f0f10" stroke-width="1.51"/><path d="M1156,956L1265,1055L1298,982Z" fill="#9c1a1b" stroke="#9c1a1b" stroke-width="1.51"/><path d="M1230,912L1156,956L1298,982Z" fill="#921617" stroke="#921617" stroke-width="1.51"/><path d="M1152,-111L1203,-40L1293,-120Z" fill="#821011" stroke="#821011" stroke-width="1.51"/><path d="M1156,956L1149,1120L1265,1055Z" fill="#941718" stroke="#941718" stroke-width="1.51"/><path d="M1219,524L1207,660L1260,572Z" fill="#961818" stroke="#961818" stroke-width="1.51"/><path d="M1088,1019L1149,1120L1156,956Z" fill="#8f1516" stroke="#8f1516" stroke-width="1.51"/><path d="M1181,177L1076,244L1192,343Z" fill="#73090c" stroke="#73090c" stroke-width="1.51"/><path d="M1076,244L1096,329L1192,343Z" fill="#690506" stroke="#690506" stroke-width="1.51"/><path d="M1192,343L1113,387L1213,463Z" fill="#7e0f10" stroke="#7e0f10" stroke-width="1.51"/><path d="M1039,523L1207,660L1219,524Z" fill="#901516" stroke="#901516" stroke-width="1.51"/><path d="M1181,735L1048,857L1230,912Z" fill="#750b0c" stroke="#750b0c" stroke-width="1.51"/><path d="M1048,857L1156,956L1230,912Z" fill="#811011" stroke="#811011" stroke-width="1.51"/><path d="M1149,1120L1093,1170L1231,1225Z" fill="#7a0d0f" stroke="#7a0d0f" stroke-width="1.51"/><path d="M1039,523L1050,674L1207,660Z" fill="#800f10" stroke="#800f10" stroke-width="1.51"/><path d="M1072,738L1048,857L1181,735Z" fill="#660404" stroke="#660404" stroke-width="1.51"/><path d="M1084,-37L1176,81L1203,-40Z" fill="#8a1314" stroke="#8a1314" stroke-width="1.51"/><path d="M1213,463L1039,523L1219,524Z" fill="#8f1515" stroke="#8f1515" stroke-width="1.51"/><path d="M1113,387L1039,523L1213,463Z" fill="#821012" stroke="#821012" stroke-width="1.51"/><path d="M1050,674L1181,735L1207,660Z" fill="#7a0d0f" stroke="#7a0d0f" stroke-width="1.51"/><path d="M1152,-111L1084,-37L1203,-40Z" fill="#7e0e10" stroke="#7e0e10" stroke-width="1.51"/><path d="M1084,-37L1063,86L1176,81Z" fill="#8b1315" stroke="#8b1315" stroke-width="1.51"/><path d="M1176,81L1063,86L1181,177Z" fill="#8a1314" stroke="#8a1314" stroke-width="1.51"/><path d="M1050,674L1072,738L1181,735Z" fill="#70080a" stroke="#70080a" stroke-width="1.51"/><path d="M1096,329L1113,387L1192,343Z" fill="#72090b" stroke="#72090b" stroke-width="1.51"/><path d="M1063,86L1076,244L1181,177Z" fill="#7c0e0f" stroke="#7c0e0f" stroke-width="1.51"/><path d="M1088,1019L1065,1089L1149,1120Z" fill="#841012" stroke="#841012" stroke-width="1.51"/><path d="M1077,-130L1084,-37L1152,-111Z" fill="#73090b" stroke="#73090b" stroke-width="1.51"/><path d="M1048,857L1088,1019L1156,956Z" fill="#810f11" stroke="#810f11" stroke-width="1.51"/><path d="M1065,1089L1093,1170L1149,1120Z" fill="#7b0c0f" stroke="#7b0c0f" stroke-width="1.51"/><path d="M1039,523L974,622L1050,674Z" fill="#831012" stroke="#831012" stroke-width="1.51"/><path d="M1063,86L990,218L1076,244Z" fill="#770b0d" stroke="#770b0d" stroke-width="1.51"/><path d="M1048,857L965,952L1088,1019Z" fill="#800e10" stroke="#800e10" stroke-width="1.51"/><path d="M959,454L1039,523L1113,387Z" fill="#7d0e10" stroke="#7d0e10" stroke-width="1.51"/><path d="M1096,329L970,347L1113,387Z" fill="#690606" stroke="#690606" stroke-width="1.51"/><path d="M970,347L959,454L1113,387Z" fill="#760b0d" stroke="#760b0d" stroke-width="1.51"/><path d="M979,876L965,952L1048,857Z" fill="#7c0e0f" stroke="#7c0e0f" stroke-width="1.51"/><path d="M1077,-130L962,-37L1084,-37Z" fill="#750b0c" stroke="#750b0c" stroke-width="1.51"/><path d="M962,-37L1063,86L1084,-37Z" fill="#810f11" stroke="#810f11" stroke-width="1.51"/><path d="M1065,1089L995,1122L1093,1170Z" fill="#770b0e" stroke="#770b0e" stroke-width="1.51"/><path d="M1076,244L970,347L1096,329Z" fill="#630303" stroke="#630303" stroke-width="1.51"/><path d="M995,1122L975,1181L1093,1170Z" fill="#760a0d" stroke="#760a0d" stroke-width="1.51"/><path d="M943,800L1048,857L1072,738Z" fill="#690506" stroke="#690506" stroke-width="1.51"/><path d="M990,218L970,347L1076,244Z" fill="#6c0608" stroke="#6c0608" stroke-width="1.51"/><path d="M965,952L1065,1089L1088,1019Z" fill="#8a1314" stroke="#8a1314" stroke-width="1.51"/><path d="M962,-37L933,67L1063,86Z" fill="#8e1516" stroke="#8e1516" stroke-width="1.51"/><path d="M965,952L995,1122L1065,1089Z" fill="#891214" stroke="#891214" stroke-width="1.51"/><path d="M930,-132L962,-37L1077,-130Z" fill="#760b0d" stroke="#760b0d" stroke-width="1.51"/><path d="M933,67L990,218L1063,86Z" fill="#871213" stroke="#871213" stroke-width="1.51"/><path d="M1050,674L943,800L1072,738Z" fill="#6c0708" stroke="#6c0708" stroke-width="1.51"/><path d="M933,67L897,171L990,218Z" fill="#891313" stroke="#891313" stroke-width="1.51"/><path d="M943,800L979,876L1048,857Z" fill="#740a0c" stroke="#740a0c" stroke-width="1.51"/><path d="M974,622L943,800L1050,674Z" fill="#770b0d" stroke="#770b0d" stroke-width="1.51"/><path d="M938,508L974,622L1039,523Z" fill="#901617" stroke="#901617" stroke-width="1.51"/><path d="M959,454L938,508L1039,523Z" fill="#8c1415" stroke="#8c1415" stroke-width="1.51"/><path d="M878,622L834,764L943,800Z" fill="#7f0f10" stroke="#7f0f10" stroke-width="1.51"/><path d="M878,622L943,800L974,622Z" fill="#811011" stroke="#811011" stroke-width="1.51"/><path d="M897,326L970,347L990,218Z" fill="#6f0709" stroke="#6f0709" stroke-width="1.51"/><path d="M897,171L897,326L990,218Z" fill="#7c0e10" stroke="#7c0e10" stroke-width="1.51"/><path d="M850,1061L975,1181L995,1122Z" fill="#861212" stroke="#861212" stroke-width="1.51"/><path d="M965,952L850,1061L995,1122Z" fill="#941717" stroke="#941717" stroke-width="1.51"/><path d="M938,508L878,622L974,622Z" fill="#921617" stroke="#921617" stroke-width="1.51"/><path d="M850,1061L862,1206L975,1181Z" fill="#871213" stroke="#871213" stroke-width="1.51"/><path d="M868,125L897,171L933,67Z" fill="#941617" stroke="#941617" stroke-width="1.51"/><path d="M897,326L854,441L959,454Z" fill="#861113" stroke="#861113" stroke-width="1.51"/><path d="M875,-12L933,67L962,-37Z" fill="#911516" stroke="#911516" stroke-width="1.51"/><path d="M897,326L959,454L970,347Z" fill="#7c0d0f" stroke="#7c0d0f" stroke-width="1.51"/><path d="M879,891L965,952L979,876Z" fill="#851112" stroke="#851112" stroke-width="1.51"/><path d="M943,800L879,891L979,876Z" fill="#7d0e10" stroke="#7d0e10" stroke-width="1.51"/><path d="M820,959L850,1061L965,952Z" fill="#9c1a1a" stroke="#9c1a1a" stroke-width="1.51"/><path d="M930,-132L875,-12L962,-37Z" fill="#851112" stroke="#851112" stroke-width="1.51"/><path d="M879,891L820,959L965,952Z" fill="#911616" stroke="#911616" stroke-width="1.51"/><path d="M854,441L938,508L959,454Z" fill="#8e1515" stroke="#8e1515" stroke-width="1.51"/><path d="M777,281L897,326L897,171Z" fill="#821011" stroke="#821011" stroke-width="1.51"/><path d="M827,-130L875,-12L930,-132Z" fill="#861112" stroke="#861112" stroke-width="1.51"/><path d="M840,509L878,622L938,508Z" fill="#9f1b1b" stroke="#9f1b1b" stroke-width="1.51"/><path d="M854,441L840,509L938,508Z" fill="#971818" stroke="#971818" stroke-width="1.51"/><path d="M834,764L879,891L943,800Z" fill="#7e0e10" stroke="#7e0e10" stroke-width="1.51"/><path d="M875,-12L868,125L933,67Z" fill="#9e1b1b" stroke="#9e1b1b" stroke-width="1.51"/><path d="M101,-127L166,-117L426,-140Z" fill="#831012" stroke="#831012" stroke-width="1.51"/><path d="M850,1061L767,1207L862,1206Z" fill="#8f1516" stroke="#8f1516" stroke-width="1.51"/><path d="M772,79L868,125L875,-12Z" fill="#a61d1e" stroke="#a61d1e" stroke-width="1.51"/><path d="M744,613L834,764L878,622Z" fill="#921617" stroke="#921617" stroke-width="1.51"/><path d="M777,281L854,441L897,326Z" fill="#841112" stroke="#841112" stroke-width="1.51"/><path d="M868,125L718,189L897,171Z" fill="#961718" stroke="#961718" stroke-width="1.51"/><path d="M718,189L777,281L897,171Z" fill="#911617" stroke="#911617" stroke-width="1.51"/><path d="M734,1085L767,1207L850,1061Z" fill="#9c1a1a" stroke="#9c1a1a" stroke-width="1.51"/><path d="M820,959L775,1015L850,1061Z" fill="#a81e1e" stroke="#a81e1e" stroke-width="1.51"/><path d="M777,281L722,413L854,441Z" fill="#911616" stroke="#911616" stroke-width="1.51"/><path d="M827,-130L759,-19L875,-12Z" fill="#941717" stroke="#941717" stroke-width="1.51"/><path d="M759,-19L772,79L875,-12Z" fill="#a21c1c" stroke="#a21c1c" stroke-width="1.51"/><path d="M840,509L744,613L878,622Z" fill="#a11c1c" stroke="#a11c1c" stroke-width="1.51"/><path d="M711,851L820,959L879,891Z" fill="#961818" stroke="#961818" stroke-width="1.51"/><path d="M759,781L711,851L879,891Z" fill="#8f1516" stroke="#8f1516" stroke-width="1.51"/><path d="M834,764L759,781L879,891Z" fill="#851112" stroke="#851112" stroke-width="1.51"/><path d="M772,79L718,189L868,125Z" fill="#a11b1c" stroke="#a11b1c" stroke-width="1.51"/><path d="M744,613L759,781L834,764Z" fill="#8f1516" stroke="#8f1516" stroke-width="1.51"/><path d="M760,504L744,613L840,509Z" fill="#ad2020" stroke="#ad2020" stroke-width="1.51"/><path d="M609,-160L731,-85L827,-130Z" fill="#8d1415" stroke="#8d1415" stroke-width="1.51"/><path d="M731,-85L759,-19L827,-130Z" fill="#961818" stroke="#961818" stroke-width="1.51"/><path d="M760,504L840,509L854,441Z" fill="#9f1b1c" stroke="#9f1b1c" stroke-width="1.51"/><path d="M722,413L760,504L854,441Z" fill="#9e1b1b" stroke="#9e1b1b" stroke-width="1.51"/><path d="M775,1015L734,1085L850,1061Z" fill="#a61d1e" stroke="#a61d1e" stroke-width="1.51"/><path d="M649,1182L556,1231L767,1207Z" fill="#851112" stroke="#851112" stroke-width="1.51"/><path d="M711,851L775,1015L820,959Z" fill="#a21c1c" stroke="#a21c1c" stroke-width="1.51"/><path d="M623,688L667,764L744,613Z" fill="#8e1515" stroke="#8e1515" stroke-width="1.51"/><path d="M744,613L667,764L759,781Z" fill="#8f1516" stroke="#8f1516" stroke-width="1.51"/><path d="M660,505L744,613L760,504Z" fill="#ae2020" stroke="#ae2020" stroke-width="1.51"/><path d="M734,1085L674,1098L767,1207Z" fill="#9a191a" stroke="#9a191a" stroke-width="1.51"/><path d="M674,1098L649,1182L767,1207Z" fill="#911616" stroke="#911616" stroke-width="1.51"/><path d="M610,93L718,189L772,79Z" fill="#a11c1c" stroke="#a11c1c" stroke-width="1.51"/><path d="M759,-19L666,-39L772,79Z" fill="#a51d1d" stroke="#a51d1d" stroke-width="1.51"/><path d="M666,-39L610,93L772,79Z" fill="#a51d1e" stroke="#a51d1e" stroke-width="1.51"/><path d="M711,851L653,867L775,1015Z" fill="#9a1919" stroke="#9a1919" stroke-width="1.51"/><path d="M653,867L598,1020L775,1015Z" fill="#9f1b1b" stroke="#9f1b1b" stroke-width="1.51"/><path d="M597,278L722,413L777,281Z" fill="#851112" stroke="#851112" stroke-width="1.51"/><path d="M718,189L597,278L777,281Z" fill="#8b1314" stroke="#8b1314" stroke-width="1.51"/><path d="M674,1098L734,1085L775,1015Z" fill="#a61e1e" stroke="#a61e1e" stroke-width="1.51"/><path d="M598,1020L674,1098L775,1015Z" fill="#a41c1d" stroke="#a41c1d" stroke-width="1.51"/><path d="M722,413L660,505L760,504Z" fill="#a11c1c" stroke="#a11c1c" stroke-width="1.51"/><path d="M646,460L660,505L722,413Z" fill="#9a1919" stroke="#9a1919" stroke-width="1.51"/><path d="M731,-85L666,-39L759,-19Z" fill="#9a1919" stroke="#9a1919" stroke-width="1.51"/><path d="M667,764L711,851L759,781Z" fill="#871113" stroke="#871113" stroke-width="1.51"/><path d="M610,93L619,183L718,189Z" fill="#941718" stroke="#941718" stroke-width="1.51"/><path d="M597,278L569,345L722,413Z" fill="#800f11" stroke="#800f11" stroke-width="1.51"/><path d="M660,505L623,688L744,613Z" fill="#9d1a1b" stroke="#9d1a1b" stroke-width="1.51"/><path d="M564,559L623,688L660,505Z" fill="#981819" stroke="#981819" stroke-width="1.51"/><path d="M619,183L597,278L718,189Z" fill="#891313" stroke="#891313" stroke-width="1.51"/><path d="M609,-160L666,-39L731,-85Z" fill="#8b1414" stroke="#8b1414" stroke-width="1.51"/><path d="M667,764L653,867L711,851Z" fill="#871213" stroke="#871213" stroke-width="1.51"/><path d="M569,345L646,460L722,413Z" fill="#8c1415" stroke="#8c1415" stroke-width="1.51"/><path d="M542,1002L598,1020L653,867Z" fill="#941717" stroke="#941717" stroke-width="1.51"/><path d="M609,-160L516,-81L666,-39Z" fill="#821012" stroke="#821012" stroke-width="1.51"/><path d="M501,-52L610,93L666,-39Z" fill="#921616" stroke="#921616" stroke-width="1.51"/><path d="M540,747L653,867L667,764Z" fill="#7a0c0f" stroke="#7a0c0f" stroke-width="1.51"/><path d="M545,1123L649,1182L674,1098Z" fill="#8c1415" stroke="#8c1415" stroke-width="1.51"/><path d="M598,1020L545,1123L674,1098Z" fill="#931717" stroke="#931717" stroke-width="1.51"/><path d="M498,887L542,1002L653,867Z" fill="#881213" stroke="#881213" stroke-width="1.51"/><path d="M623,688L540,747L667,764Z" fill="#7e0e10" stroke="#7e0e10" stroke-width="1.51"/><path d="M516,-81L501,-52L666,-39Z" fill="#841112" stroke="#841112" stroke-width="1.51"/><path d="M646,460L564,559L660,505Z" fill="#9b1a1a" stroke="#9b1a1a" stroke-width="1.51"/><path d="M569,345L516,447L646,460Z" fill="#851112" stroke="#851112" stroke-width="1.51"/><path d="M540,747L498,887L653,867Z" fill="#790c0e" stroke="#790c0e" stroke-width="1.51"/><path d="M564,559L507,624L623,688Z" fill="#8a1314" stroke="#8a1314" stroke-width="1.51"/><path d="M516,447L564,559L646,460Z" fill="#911617" stroke="#911617" stroke-width="1.51"/><path d="M545,1123L556,1231L649,1182Z" fill="#7f0f11" stroke="#7f0f11" stroke-width="1.51"/><path d="M-111,-155L-20,-133L101,-127Z" fill="#7d0e0f" stroke="#7d0e0f" stroke-width="1.51"/><path d="M455,107L497,134L501,-52Z" fill="#8e1516" stroke="#8e1516" stroke-width="1.51"/><path d="M501,-52L497,134L610,93Z" fill="#941717" stroke="#941717" stroke-width="1.51"/><path d="M529,220L597,278L619,183Z" fill="#7f0f10" stroke="#7f0f10" stroke-width="1.51"/><path d="M610,93L497,134L619,183Z" fill="#8d1415" stroke="#8d1415" stroke-width="1.51"/><path d="M507,624L540,747L623,688Z" fill="#7f0f10" stroke="#7f0f10" stroke-width="1.51"/><path d="M166,-117L288,-103L426,-140Z" fill="#7c0d0f" stroke="#7c0d0f" stroke-width="1.51"/><path d="M497,134L529,220L619,183Z" fill="#821012" stroke="#821012" stroke-width="1.51"/><path d="M542,1002L545,1123L598,1020Z" fill="#931717" stroke="#931717" stroke-width="1.51"/><path d="M426,-140L516,-81L609,-160Z" fill="#72090b" stroke="#72090b" stroke-width="1.51"/><path d="M442,-18L455,107L501,-52Z" fill="#831012" stroke="#831012" stroke-width="1.51"/><path d="M115,1215L9,1232L277,1237Z" fill="#8c1415" stroke="#8c1415" stroke-width="1.51"/><path d="M529,220L569,345L597,278Z" fill="#740a0c" stroke="#740a0c" stroke-width="1.51"/><path d="M507,624L457,683L540,747Z" fill="#780c0e" stroke="#780c0e" stroke-width="1.51"/><path d="M498,887L452,940L542,1002Z" fill="#831012" stroke="#831012" stroke-width="1.51"/><path d="M542,1002L456,1129L545,1123Z" fill="#871213" stroke="#871213" stroke-width="1.51"/><path d="M400,1167L277,1237L556,1231Z" fill="#6b0607" stroke="#6b0607" stroke-width="1.51"/><path d="M545,1123L456,1129L556,1231Z" fill="#7a0d0f" stroke="#7a0d0f" stroke-width="1.51"/><path d="M516,447L397,504L564,559Z" fill="#891314" stroke="#891314" stroke-width="1.51"/><path d="M529,220L430,352L569,345Z" fill="#6a0607" stroke="#6a0607" stroke-width="1.51"/><path d="M430,352L516,447L569,345Z" fill="#760b0d" stroke="#760b0d" stroke-width="1.51"/><path d="M397,504L507,624L564,559Z" fill="#8b1314" stroke="#8b1314" stroke-width="1.51"/><path d="M390,855L498,887L540,747Z" fill="#6e0709" stroke="#6e0709" stroke-width="1.51"/><path d="M456,1129L400,1167L556,1231Z" fill="#72090b" stroke="#72090b" stroke-width="1.51"/><path d="M382,754L390,855L540,747Z" fill="#620302" stroke="#620302" stroke-width="1.51"/><path d="M452,940L456,1129L542,1002Z" fill="#8d1415" stroke="#8d1415" stroke-width="1.51"/><path d="M457,683L382,754L540,747Z" fill="#6b0707" stroke="#6b0707" stroke-width="1.51"/><path d="M452,940L345,1013L456,1129Z" fill="#891314" stroke="#891314" stroke-width="1.51"/><path d="M497,134L395,170L529,220Z" fill="#7a0c0e" stroke="#7a0c0e" stroke-width="1.51"/><path d="M395,170L430,352L529,220Z" fill="#6b0607" stroke="#6b0607" stroke-width="1.51"/><path d="M430,352L403,448L516,447Z" fill="#750a0c" stroke="#750a0c" stroke-width="1.51"/><path d="M403,448L397,504L516,447Z" fill="#7c0d0f" stroke="#7c0d0f" stroke-width="1.51"/><path d="M426,-140L501,-52L516,-81Z" fill="#73090b" stroke="#73090b" stroke-width="1.51"/><path d="M426,-140L442,-18L501,-52Z" fill="#740a0c" stroke="#740a0c" stroke-width="1.51"/><path d="M397,504L457,683L507,624Z" fill="#7f0f10" stroke="#7f0f10" stroke-width="1.51"/><path d="M455,107L395,170L497,134Z" fill="#7d0e10" stroke="#7d0e10" stroke-width="1.51"/><path d="M390,855L452,940L498,887Z" fill="#750b0c" stroke="#750b0c" stroke-width="1.51"/><path d="M335,509L293,668L397,504Z" fill="#921616" stroke="#921616" stroke-width="1.51"/><path d="M395,170L336,183L430,352Z" fill="#72090b" stroke="#72090b" stroke-width="1.51"/><path d="M336,183L283,288L430,352Z" fill="#70080a" stroke="#70080a" stroke-width="1.51"/><path d="M426,-140L288,-103L442,-18Z" fill="#760a0d" stroke="#760a0d" stroke-width="1.51"/><path d="M288,-103L324,7L442,-18Z" fill="#821012" stroke="#821012" stroke-width="1.51"/><path d="M442,-18L324,7L455,107Z" fill="#871213" stroke="#871213" stroke-width="1.51"/><path d="M324,7L311,59L455,107Z" fill="#911617" stroke="#911617" stroke-width="1.51"/><path d="M314,1114L400,1167L456,1129Z" fill="#7a0d0e" stroke="#7a0d0e" stroke-width="1.51"/><path d="M345,1013L314,1114L456,1129Z" fill="#851113" stroke="#851113" stroke-width="1.51"/><path d="M343,738L382,754L457,683Z" fill="#6f0809" stroke="#6f0809" stroke-width="1.51"/><path d="M293,668L343,738L457,683Z" fill="#770c0d" stroke="#770c0d" stroke-width="1.51"/><path d="M397,504L293,668L457,683Z" fill="#821011" stroke="#821011" stroke-width="1.51"/><path d="M311,59L395,170L455,107Z" fill="#871213" stroke="#871213" stroke-width="1.51"/><path d="M390,855L345,1013L452,940Z" fill="#800f11" stroke="#800f11" stroke-width="1.51"/><path d="M302,433L403,448L430,352Z" fill="#7a0d0e" stroke="#7a0d0e" stroke-width="1.51"/><path d="M283,288L302,433L430,352Z" fill="#760b0d" stroke="#760b0d" stroke-width="1.51"/><path d="M343,738L282,832L382,754Z" fill="#6e0709" stroke="#6e0709" stroke-width="1.51"/><path d="M382,754L282,832L390,855Z" fill="#71090b" stroke="#71090b" stroke-width="1.51"/><path d="M282,832L345,1013L390,855Z" fill="#810f11" stroke="#810f11" stroke-width="1.51"/><path d="M311,59L336,183L395,170Z" fill="#881213" stroke="#881213" stroke-width="1.51"/><path d="M335,509L397,504L403,448Z" fill="#871213" stroke="#871213" stroke-width="1.51"/><path d="M302,433L335,509L403,448Z" fill="#871214" stroke="#871214" stroke-width="1.51"/><path d="M314,1114L277,1237L400,1167Z" fill="#7c0d0f" stroke="#7c0d0f" stroke-width="1.51"/><path d="M282,832L199,884L345,1013Z" fill="#8b1414" stroke="#8b1414" stroke-width="1.51"/><path d="M283,288L218,357L302,433Z" fill="#800f11" stroke="#800f11" stroke-width="1.51"/><path d="M242,514L293,668L335,509Z" fill="#981819" stroke="#981819" stroke-width="1.51"/><path d="M311,59L196,138L336,183Z" fill="#921617" stroke="#921617" stroke-width="1.51"/><path d="M233,770L282,832L343,738Z" fill="#740a0c" stroke="#740a0c" stroke-width="1.51"/><path d="M199,884L173,1001L345,1013Z" fill="#9a1919" stroke="#9a1919" stroke-width="1.51"/><path d="M236,1109L314,1114L345,1013Z" fill="#901616" stroke="#901616" stroke-width="1.51"/><path d="M173,1001L236,1109L345,1013Z" fill="#9c1a1a" stroke="#9c1a1a" stroke-width="1.51"/><path d="M293,668L233,770L343,738Z" fill="#7c0d0f" stroke="#7c0d0f" stroke-width="1.51"/><path d="M242,514L188,640L293,668Z" fill="#961818" stroke="#961818" stroke-width="1.51"/><path d="M236,1109L277,1237L314,1114Z" fill="#861212" stroke="#861212" stroke-width="1.51"/><path d="M302,433L242,514L335,509Z" fill="#921617" stroke="#921617" stroke-width="1.51"/><path d="M186,204L283,288L336,183Z" fill="#831012" stroke="#831012" stroke-width="1.51"/><path d="M196,138L186,204L336,183Z" fill="#8f1515" stroke="#8f1515" stroke-width="1.51"/><path d="M241,448L242,514L302,433Z" fill="#931617" stroke="#931617" stroke-width="1.51"/><path d="M185,15L311,59L324,7Z" fill="#981818" stroke="#981818" stroke-width="1.51"/><path d="M288,-103L185,15L324,7Z" fill="#8f1516" stroke="#8f1516" stroke-width="1.51"/><path d="M218,357L241,448L302,433Z" fill="#8a1314" stroke="#8a1314" stroke-width="1.51"/><path d="M185,15L196,138L311,59Z" fill="#a21c1c" stroke="#a21c1c" stroke-width="1.51"/><path d="M164,1195L115,1215L277,1237Z" fill="#881213" stroke="#881213" stroke-width="1.51"/><path d="M236,1109L164,1195L277,1237Z" fill="#881214" stroke="#881214" stroke-width="1.51"/><path d="M166,-117L185,15L288,-103Z" fill="#8f1516" stroke="#8f1516" stroke-width="1.51"/><path d="M188,640L233,770L293,668Z" fill="#881314" stroke="#881314" stroke-width="1.51"/><path d="M186,204L218,357L283,288Z" fill="#7e0e10" stroke="#7e0e10" stroke-width="1.51"/><path d="M233,770L199,884L282,832Z" fill="#821012" stroke="#821012" stroke-width="1.51"/><path d="M166,-117L118,-40L185,15Z" fill="#9a191a" stroke="#9a191a" stroke-width="1.51"/><path d="M188,640L88,681L233,770Z" fill="#901616" stroke="#901616" stroke-width="1.51"/><path d="M88,681L81,759L233,770Z" fill="#8e1516" stroke="#8e1516" stroke-width="1.51"/><path d="M218,357L128,418L241,448Z" fill="#911616" stroke="#911616" stroke-width="1.51"/><path d="M73,549L188,640L242,514Z" fill="#a71e1f" stroke="#a71e1f" stroke-width="1.51"/><path d="M241,448L128,418L242,514Z" fill="#991919" stroke="#991919" stroke-width="1.51"/><path d="M128,418L73,549L242,514Z" fill="#a71e1e" stroke="#a71e1e" stroke-width="1.51"/><path d="M186,204L50,333L218,357Z" fill="#851113" stroke="#851113" stroke-width="1.51"/><path d="M81,759L199,884L233,770Z" fill="#871113" stroke="#871113" stroke-width="1.51"/><path d="M173,1001L64,1089L236,1109Z" fill="#a51d1d" stroke="#a51d1d" stroke-width="1.51"/><path d="M64,1089L164,1195L236,1109Z" fill="#9a1919" stroke="#9a1919" stroke-width="1.51"/><path d="M185,15L62,116L196,138Z" fill="#aa1f1f" stroke="#aa1f1f" stroke-width="1.51"/><path d="M50,333L128,418L218,357Z" fill="#931617" stroke="#931617" stroke-width="1.51"/><path d="M116,172L50,333L186,204Z" fill="#921617" stroke="#921617" stroke-width="1.51"/><path d="M62,116L116,172L196,138Z" fill="#a31d1d" stroke="#a31d1d" stroke-width="1.51"/><path d="M116,172L186,204L196,138Z" fill="#991919" stroke="#991919" stroke-width="1.51"/><path d="M56,906L173,1001L199,884Z" fill="#a11b1b" stroke="#a11b1b" stroke-width="1.51"/><path d="M81,759L56,906L199,884Z" fill="#931717" stroke="#931717" stroke-width="1.51"/><path d="M13,278L50,333L116,172Z" fill="#871113" stroke="#871113" stroke-width="1.51"/><path d="M118,-40L62,116L185,15Z" fill="#ab1f20" stroke="#ab1f20" stroke-width="1.51"/><path d="M73,549L88,681L188,640Z" fill="#a21c1c" stroke="#a21c1c" stroke-width="1.51"/><path d="M64,1089L115,1215L164,1195Z" fill="#961818" stroke="#961818" stroke-width="1.51"/><path d="M56,906L47,997L173,1001Z" fill="#a51d1d" stroke="#a51d1d" stroke-width="1.51"/><path d="M101,-127L118,-40L166,-117Z" fill="#961818" stroke="#961818" stroke-width="1.51"/><path d="M47,997L64,1089L173,1001Z" fill="#ab1f1f" stroke="#ab1f1f" stroke-width="1.51"/><path d="M64,1089L9,1232L115,1215Z" fill="#8d1415" stroke="#8d1415" stroke-width="1.51"/><path d="M-9,223L13,278L116,172Z" fill="#8a1314" stroke="#8a1314" stroke-width="1.51"/><path d="M-50,32L62,116L118,-40Z" fill="#a11c1c" stroke="#a11c1c" stroke-width="1.51"/><path d="M50,333L-31,467L128,418Z" fill="#901516" stroke="#901516" stroke-width="1.51"/><path d="M-31,467L20,530L128,418Z" fill="#9a191a" stroke="#9a191a" stroke-width="1.51"/><path d="M20,530L73,549L128,418Z" fill="#a31d1d" stroke="#a31d1d" stroke-width="1.51"/><path d="M-50,32L-34,82L62,116Z" fill="#9d1a1a" stroke="#9d1a1a" stroke-width="1.51"/><path d="M6,759L56,906L81,759Z" fill="#831012" stroke="#831012" stroke-width="1.51"/><path d="M101,-127L-20,-133L118,-40Z" fill="#8d1415" stroke="#8d1415" stroke-width="1.51"/><path d="M-20,-133L-50,32L118,-40Z" fill="#8f1516" stroke="#8f1516" stroke-width="1.51"/><path d="M62,116L-9,223L116,172Z" fill="#951718" stroke="#951718" stroke-width="1.51"/><path d="M6,759L12,908L56,906Z" fill="#881313" stroke="#881313" stroke-width="1.51"/><path d="M20,530L-37,683L73,549Z" fill="#9b1a1a" stroke="#9b1a1a" stroke-width="1.51"/><path d="M73,549L-37,683L88,681Z" fill="#951718" stroke="#951718" stroke-width="1.51"/><path d="M17,979L47,997L56,906Z" fill="#9c1a1a" stroke="#9c1a1a" stroke-width="1.51"/><path d="M6,759L81,759L88,681Z" fill="#871213" stroke="#871213" stroke-width="1.51"/><path d="M-37,683L6,759L88,681Z" fill="#861213" stroke="#861213" stroke-width="1.51"/><path d="M47,997L-26,1055L64,1089Z" fill="#9f1b1b" stroke="#9f1b1b" stroke-width="1.51"/><path d="M-26,1055L9,1232L64,1089Z" fill="#901616" stroke="#901616" stroke-width="1.51"/><path d="M12,908L17,979L56,906Z" fill="#951718" stroke="#951718" stroke-width="1.51"/><path d="M-34,82L-9,223L62,116Z" fill="#941718" stroke="#941718" stroke-width="1.51"/><path d="M17,979L-26,1055L47,997Z" fill="#a11b1c" stroke="#a11b1c" stroke-width="1.51"/><path d="M-124,360L-31,467L50,333Z" fill="#821011" stroke="#821011" stroke-width="1.51"/><path d="M-26,1055L-92,1239L9,1232Z" fill="#800f11" stroke="#800f11" stroke-width="1.51"/><path d="M-117,620L-37,683L20,530Z" fill="#8e1515" stroke="#8e1515" stroke-width="1.51"/><path d="M13,278L-124,360L50,333Z" fill="#790c0e" stroke="#790c0e" stroke-width="1.51"/><path d="M-34,82L-91,128L-9,223Z" fill="#8c1415" stroke="#8c1415" stroke-width="1.51"/><path d="M-104,0L-50,32L-20,-133Z" fill="#881213" stroke="#881213" stroke-width="1.51"/><path d="M6,759L-139,793L12,908Z" fill="#790d0e" stroke="#790d0e" stroke-width="1.51"/><path d="M-139,793L-140,882L12,908Z" fill="#7a0d0f" stroke="#7a0d0f" stroke-width="1.51"/><path d="M12,908L-100,988L17,979Z" fill="#931717" stroke="#931717" stroke-width="1.51"/><path d="M-31,467L-117,620L20,530Z" fill="#9b1a1a" stroke="#9b1a1a" stroke-width="1.51"/><path d="M-100,988L-26,1055L17,979Z" fill="#9a191a" stroke="#9a191a" stroke-width="1.51"/><path d="M-136,1047L-92,1239L-26,1055Z" fill="#851112" stroke="#851112" stroke-width="1.51"/><path d="M-9,223L-124,360L13,278Z" fill="#750a0d" stroke="#750a0d" stroke-width="1.51"/><path d="M-140,882L-100,988L12,908Z" fill="#871213" stroke="#871213" stroke-width="1.51"/><path d="M-122,466L-117,620L-31,467Z" fill="#911616" stroke="#911616" stroke-width="1.51"/><path d="M-37,683L-139,793L6,759Z" fill="#760b0d" stroke="#760b0d" stroke-width="1.51"/><path d="M-124,360L-122,466L-31,467Z" fill="#821012" stroke="#821012" stroke-width="1.51"/><path d="M-111,-155L-104,0L-20,-133Z" fill="#7b0d0f" stroke="#7b0d0f" stroke-width="1.51"/><path d="M-91,128L-158,188L-9,223Z" fill="#811011" stroke="#811011" stroke-width="1.51"/><path d="M-158,188L-124,360L-9,223Z" fill="#73090b" stroke="#73090b" stroke-width="1.51"/><path d="M-122,466L-170,517L-117,620Z" fill="#8e1415" stroke="#8e1415" stroke-width="1.51"/><path d="M-100,988L-136,1047L-26,1055Z" fill="#931617" stroke="#931617" stroke-width="1.51"/><path d="M-117,620L-139,793L-37,683Z" fill="#790c0e" stroke="#790c0e" stroke-width="1.51"/><path d="M-50,32L-91,128L-34,82Z" fill="#961818" stroke="#961818" stroke-width="1.51"/><path d="M-104,0L-91,128L-50,32Z" fill="#941718" stroke="#941718" stroke-width="1.51"/><path d="M-104,0L-158,188L-91,128Z" fill="#8a1314" stroke="#8a1314" stroke-width="1.51"/><path d="M-140,882L-136,1047L-100,988Z" fill="#891214" stroke="#891214" stroke-width="1.51"/><path d="M-111,-155L-158,188L-104,0Z" fill="#871213" stroke="#871213" stroke-width="1.51"/><path d="M-124,360L-170,517L-122,466Z" fill="#7e0f10" stroke="#7e0f10" stroke-width="1.51"/><path d="M-170,517L-139,793L-117,620Z" fill="#7c0d0f" stroke="#7c0d0f" stroke-width="1.51"/><path d="M-158,188L-170,517L-124,360Z" fill="#6d0709" stroke="#6d0709" stroke-width="1.51"/><path d="M-140,882L-170,517L-136,1047Z" fill="#6b0607" stroke="#6b0607" stroke-width="1.51"/><path d="M-170,517L-140,882L-139,793Z" fill="#6d0708" stroke="#6d0708" stroke-width="1.51"/></svg>